# xmcd CD database file
#
# Track frame offsets:
#        150
#        14936
#        35133
#        53293
#        72759
#        92264
#        109829
#        126771
#        144817
#
# Disc length: 2482 seconds
#
# Revision: 0
# Processed by: cddbd v1.5.2PL0 Copyright (c) Steve Scherf et al.
# Submitted via: CUERipper 2.1.5
#
DISCID=7109b009
DTITLE=The Three Timers - Sounds Of San Antone
DYEAR=2019
DGENRE=Americana
TTITLE0=N.Y. L.A. and Nashville
TTITLE1=Love Goner
TTITLE2=Sunday Son
TTITLE3=Lonely Heart (You're Gonna Die)
TTITLE4=Babe, I've Got To Go
TTITLE5=Anymore
TTITLE6=Forgot About Nashville
TTITLE7=Brand New Dance
TTITLE8=Born In San Antone (Live At The Lonsome Rose En San Antone)
EXTD=
EXTT0=
EXTT1=
EXTT2=
EXTT3=
EXTT4=
EXTT5=
EXTT6=
EXTT7=
EXTT8=
PLAYORDER=
